<svg width="22" height="21" viewBox="0 0 22 21" fill="none" xmlns="http://www.w3.org/2000/svg">
<path d="M11 10.5C11 10.5 10.6219 10.5 9.86563 10.5C9.10938 10.5 8.19271 9.98594 7.11563 8.95781C6.03854 7.92969 5.5 6.69375 5.5 5.25C5.5 3.80625 6.03854 2.57031 7.11563 1.54219C8.19271 0.514063 9.4875 0 11 0C12.5125 0 13.8073 0.514063 14.8844 1.54219C15.9615 2.57031 16.5 3.80625 16.5 5.25C16.5 6.69375 15.9615 7.92969 14.8844 8.95781C13.8073 9.98594 12.5125 10.5 11 10.5ZM0 21V17.325C0 16.5813 0.200521 15.8977 0.601562 15.2742C1.0026 14.6508 1.53542 14.175 2.2 13.8469C3.62083 13.1688 5.06458 12.6602 6.53125 12.3211C7.99792 11.982 9.4875 11.8125 11 11.8125C12.5125 11.8125 14.0021 11.982 15.4688 12.3211C16.9354 12.6602 18.3792 13.1688 19.8 13.8469C20.4646 14.175 20.9974 14.6508 21.3984 15.2742C21.7995 15.8977 22 16.5813 22 17.325V21H0ZM2.75 18.375H19.25V17.325C19.25 17.0844 19.187 16.8656 19.0609 16.6688C18.9349 16.4719 18.7688 16.3188 18.5625 16.2094C17.325 15.6188 16.076 15.1758 14.8156 14.8805C13.5552 14.5852 12.2833 14.4375 11 14.4375C9.71667 14.4375 8.44479 14.5852 7.18438 14.8805C5.92396 15.1758 4.675 15.6188 3.4375 16.2094C3.23125 16.3188 3.0651 16.4719 2.93906 16.6688C2.81302 16.8656 2.75 17.0844 2.75 17.325V18.375ZM11 7.875C11 7.875 11.1891 7.875 11.5672 7.875C11.9453 7.875 12.4036 7.61797 12.9422 7.10391C13.4807 6.58984 13.75 5.97188 13.75 5.25C13.75 4.52813 13.4807 3.91016 12.9422 3.3961C12.4036 2.88203 11.7563 2.625 11 2.625C10.2438 2.625 9.59635 2.88203 9.05781 3.3961C8.51927 3.91016 8.25 4.52813 8.25 5.25C8.25 5.97188 8.51927 6.58984 9.05781 7.10391C9.59635 7.61797 10.2438 7.875 11 7.875Z" fill="white"/>
</svg>
