<svg width="31" height="34" viewBox="0 0 31 34" fill="none" xmlns="http://www.w3.org/2000/svg">
<path d="M7.75008 26.4445C7.75008 26.4445 7.48098 26.4445 6.94279 26.4445C6.4046 26.4445 5.75876 26.1001 5.00529 25.4115C4.25182 24.7228 3.87508 23.8866 3.87508 22.9028H1.29175V9.91668C1.29175 9.26737 1.5447 8.71153 2.0506 8.24914C2.55651 7.78676 3.16466 7.55557 3.87508 7.55557H21.9584V12.2778H25.8334L29.7084 17V22.9028H27.1251C27.1251 23.8866 26.7483 24.7228 25.9949 25.4115C25.2414 26.1001 24.3265 26.4445 23.2501 26.4445C22.1737 26.4445 21.2588 26.1001 20.5053 25.4115C19.7518 24.7228 19.3751 23.8866 19.3751 22.9028H11.6251C11.6251 23.8866 11.2483 24.7228 10.4949 25.4115C9.7414 26.1001 8.82647 26.4445 7.75008 26.4445ZM7.75008 24.0833C7.75008 24.0833 7.84157 24.0833 8.02456 24.0833C8.20755 24.0833 8.42283 23.9702 8.67039 23.7439C8.91796 23.5177 9.04175 23.2373 9.04175 22.9028C9.04175 22.5683 8.91796 22.2879 8.67039 22.0616C8.42283 21.8354 8.11605 21.7222 7.75008 21.7222C7.38411 21.7222 7.07734 21.8354 6.82977 22.0616C6.5822 22.2879 6.45842 22.5683 6.45842 22.9028C6.45842 23.2373 6.5822 23.5177 6.82977 23.7439C7.07734 23.9702 7.38411 24.0833 7.75008 24.0833ZM3.87508 20.5417H4.90842C5.27439 20.1875 5.69418 19.9022 6.16779 19.6858C6.6414 19.4693 7.16883 19.3611 7.75008 19.3611C8.33133 19.3611 8.85876 19.4693 9.33237 19.6858C9.80598 19.9022 10.2258 20.1875 10.5917 20.5417H19.3751V9.91668H3.87508V20.5417ZM23.2501 24.0833C23.2501 24.0833 23.3416 24.0833 23.5246 24.0833C23.7075 24.0833 23.9228 23.9702 24.1704 23.7439C24.418 23.5177 24.5418 23.2373 24.5418 22.9028C24.5418 22.5683 24.418 22.2879 24.1704 22.0616C23.9228 21.8354 23.6161 21.7222 23.2501 21.7222C22.8841 21.7222 22.5773 21.8354 22.3298 22.0616C22.0822 22.2879 21.9584 22.5683 21.9584 22.9028C21.9584 23.2373 22.0822 23.5177 22.3298 23.7439C22.5773 23.9702 22.8841 24.0833 23.2501 24.0833ZM21.9584 18.1806H27.448L24.5418 14.6389H21.9584V18.1806Z" fill="white"/>
</svg>
